<svg width="63" height="38" viewBox="0 0 63 38" fill="none" xmlns="http://www.w3.org/2000/svg">
<g clip-path="url(#clip0_39_8)">
<path d="M0 0L10.2941 0L18.3824 0L25 0L23.5294 3.39286L25 6.78571H10.2941V10.8571H25L23.5294 14.25L25 17.6429H10.2941V31.2143V38H0L3.67647 19L0 0Z" fill="#FF8800"/>
<path d="M9.29395 5.78613H23.4766L22.4395 3.39258L22.6123 2.99512L23.4766 1H1.21191L4.6582 18.8096L4.69531 19L4.6582 19.1904L1.21191 37H9.29395V16.6426H23.4766L22.6123 14.6475L22.4395 14.25L22.6123 13.8525L23.4766 11.8574H9.29395V5.78613ZM10.2939 10.8574H25L23.5293 14.25L25 17.6426H10.2939V38H0L3.67676 19L0 0L25 0L23.5293 3.39258L25 6.78613H10.2939V10.8574Z" fill="#FF8800"/>
<path d="M59.3546 38.192C58.5226 38.192 57.8186 38.0373 57.2426 37.728C56.6773 37.408 56.2453 36.9226 55.9466 36.272C55.6586 35.6213 55.5146 34.7946 55.5146 33.792C55.5146 32.7786 55.6586 31.952 55.9466 31.312C56.2453 30.6613 56.6826 30.1813 57.2586 29.872C57.8346 29.552 58.5546 29.392 59.4186 29.392C60.208 29.392 60.8693 29.5466 61.4026 29.856C61.936 30.1546 62.336 30.608 62.6026 31.216C62.88 31.8133 63.0186 32.5653 63.0186 33.472V34.144H56.9706C56.992 34.816 57.088 35.3706 57.2586 35.808C57.44 36.2346 57.7066 36.5493 58.0586 36.752C58.4106 36.944 58.8533 37.04 59.3866 37.04C59.7493 37.04 60.0639 36.9973 60.3306 36.912C60.6079 36.816 60.8373 36.6826 61.0186 36.512C61.2106 36.3413 61.3546 36.1386 61.4506 35.904C61.5466 35.6693 61.6 35.4133 61.6106 35.136H62.9866C62.976 35.584 62.8906 36 62.7306 36.384C62.5706 36.7573 62.336 37.0773 62.0266 37.344C61.7173 37.6106 61.3386 37.8186 60.8906 37.968C60.4426 38.1173 59.9306 38.192 59.3546 38.192ZM57.0026 33.088H61.5626C61.5626 32.6186 61.5093 32.224 61.4026 31.904C61.296 31.584 61.1413 31.3226 60.9386 31.12C60.7466 30.9173 60.5173 30.7733 60.2506 30.688C59.9946 30.592 59.7013 30.544 59.3706 30.544C58.88 30.544 58.4639 30.6346 58.1226 30.816C57.7813 30.9973 57.52 31.2746 57.3386 31.648C57.1573 32.0213 57.0453 32.5013 57.0026 33.088Z" fill="white"/>
<path d="M53.2126 38.1921C52.7753 38.1921 52.434 38.1121 52.1886 37.9521C51.9433 37.7814 51.7673 37.5627 51.6606 37.2961C51.554 37.0187 51.5006 36.7254 51.5006 36.4161V30.7681H50.4126V29.5841H51.5326L51.7886 27.2321H52.9086V29.5841H54.4926V30.7681H52.9086V36.2081C52.9086 36.4747 52.9566 36.6774 53.0526 36.8161C53.1486 36.9441 53.33 37.0081 53.5966 37.0081H54.4926V37.9361C54.386 37.9894 54.258 38.0321 54.1086 38.0641C53.9593 38.0961 53.8046 38.1227 53.6446 38.1441C53.4953 38.1761 53.3513 38.1921 53.2126 38.1921Z" fill="white"/>
<path d="M45.5756 38.192C44.7223 38.192 44.0023 38.0373 43.4156 37.728C42.8396 37.408 42.397 36.9226 42.0876 36.272C41.789 35.6213 41.6396 34.7946 41.6396 33.792C41.6396 32.7786 41.789 31.952 42.0876 31.312C42.397 30.6613 42.8396 30.1813 43.4156 29.872C44.0023 29.552 44.7223 29.392 45.5756 29.392C46.429 29.392 47.1436 29.552 47.7196 29.872C48.3063 30.1813 48.749 30.6613 49.0476 31.312C49.3463 31.952 49.4956 32.7786 49.4956 33.792C49.4956 34.7946 49.3463 35.6213 49.0476 36.272C48.749 36.9226 48.3063 37.408 47.7196 37.728C47.1436 38.0373 46.429 38.192 45.5756 38.192ZM45.5756 37.008C46.1196 37.008 46.573 36.9013 46.9356 36.688C47.2983 36.4746 47.5703 36.144 47.7516 35.696C47.9436 35.2373 48.0396 34.6613 48.0396 33.968V33.616C48.0396 32.912 47.9436 32.336 47.7516 31.888C47.5703 31.44 47.2983 31.1093 46.9356 30.896C46.573 30.6826 46.1196 30.576 45.5756 30.576C45.0316 30.576 44.573 30.6826 44.1996 30.896C43.837 31.1093 43.565 31.44 43.3836 31.888C43.2023 32.336 43.1116 32.912 43.1116 33.616V33.968C43.1116 34.6613 43.2023 35.2373 43.3836 35.696C43.565 36.144 43.837 36.4746 44.1996 36.688C44.573 36.9013 45.0316 37.008 45.5756 37.008Z" fill="white"/>
<path d="M25.4077 38V21.536H27.6157L35.6077 32.384C35.6877 32.48 35.7917 32.624 35.9197 32.816C36.0477 33.008 36.1757 33.2 36.3037 33.392C36.4317 33.568 36.5357 33.728 36.6157 33.872H36.7117C36.7117 33.616 36.7117 33.368 36.7117 33.128C36.7117 32.872 36.7117 32.624 36.7117 32.384V21.536H38.9437V38H36.8557L28.7677 26.96C28.6557 26.784 28.4877 26.536 28.2637 26.216C28.0557 25.896 27.8797 25.64 27.7357 25.448H27.6157C27.6157 25.704 27.6157 25.96 27.6157 26.216C27.6157 26.456 27.6157 26.704 27.6157 26.96V38H25.4077Z" fill="#FF8800"/>
<path d="M21.6658 38.1921C21.2284 38.1921 20.8871 38.1121 20.6418 37.9521C20.3964 37.7814 20.2204 37.5627 20.1138 37.2961C20.0071 37.0187 19.9538 36.7254 19.9538 36.4161V30.7681H18.8658V29.5841H19.9858L20.2418 27.2321H21.3618V29.5841H22.9458V30.7681H21.3618V36.2081C21.3618 36.4747 21.4098 36.6774 21.5058 36.8161C21.6018 36.9441 21.7831 37.0081 22.0498 37.0081H22.9458V37.9361C22.8391 37.9894 22.7111 38.0321 22.5618 38.0641C22.4124 38.0961 22.2578 38.1227 22.0978 38.1441C21.9484 38.1761 21.8044 38.1921 21.6658 38.1921Z" fill="white"/>
<path d="M16.104 28V26.432H17.512V28H16.104ZM16.104 38V29.584H17.512V38H16.104Z" fill="white"/>
</g>
<defs>
<clipPath id="clip0_39_8">
<rect width="63" height="38" fill="white"/>
</clipPath>
</defs>
</svg>
